<svg width="154" height="59" viewBox="0 0 154 59" fill="none" xmlns="http://www.w3.org/2000/svg">
<rect y="0.526367" width="154" height="51" rx="5" fill="#FFB400"/>
<path d="M33.5909 31.5264H35.3466V26.4525H41.1477V31.5264H42.9091V19.89H41.1477V24.9468H35.3466V19.89H33.5909V31.5264ZM47.2216 19.89H45.4659V31.5264H47.2216V19.89ZM49.7784 31.5264H51.5341V27.123H53.9205C53.9602 27.123 53.9943 27.123 54.0341 27.123L56.3977 31.5264H58.3977L55.8182 26.8161C57.2443 26.2877 57.9545 25.1002 57.9545 23.5377C57.9545 21.3957 56.625 19.89 53.9261 19.89H49.7784V31.5264ZM51.5341 25.6116V21.3957H53.7386C55.4716 21.3957 56.1875 22.2195 56.1875 23.5377C56.1875 24.8502 55.4716 25.6116 53.7614 25.6116H51.5341ZM60.0909 31.5264H67.4545V30.015H61.8466V26.4525H67.0057V24.9468H61.8466V21.4014H67.3864V19.89H60.0909V31.5264ZM73.9659 19.89V31.5264H75.6364V23.1002H75.7443L79.1761 31.5093H80.5625L83.9943 23.1059H84.1023V31.5264H85.7727V19.89H83.642L79.9375 28.9355H79.8011L76.0966 19.89H73.9659ZM88.3253 31.5264H95.6889V30.015H90.081V26.4525H95.2401V24.9468H90.081V21.4014H95.6207V19.89H88.3253V31.5264Z" fill="#2B2B2B"/>
<g clip-path="url(#clip0_2_1442)">
<path d="M116.781 24.8595L113.205 21.2835L114.148 20.3408L119.333 25.5262L114.148 30.7115L113.205 29.7688L116.781 26.1928H108.667V24.8595H116.781Z" fill="#2B2B2B"/>
</g>
<defs>
<clipPath id="clip0_2_1442">
<rect width="16" height="16" fill="white" transform="translate(106 17.5264)"/>
</clipPath>
</defs>
</svg>
